<mxfile host="app.diagrams.net" agent="Mozilla/5.0 (Windows NT 10.0; Win64; x64) AppleWebKit/537.36 (KHTML, like Gecko) Chrome/131.0.0.0 Safari/537.36" version="25.0.3">
  <diagram name="Page-1" id="fIuKq1hK2mqjscqmWO0u">
    <mxGraphModel dx="2109" dy="686" grid="1" gridSize="10" guides="1" tooltips="1" connect="1" arrows="1" fold="1" page="1" pageScale="1" pageWidth="850" pageHeight="1100" math="0" shadow="0">
      <root>
        <mxCell id="0" />
        <mxCell id="1" parent="0" />
        <mxCell id="-nP0ZrahyCruFPq4XVpQ-44" value="" style="rounded=0;whiteSpace=wrap;html=1;" vertex="1" parent="1">
          <mxGeometry x="-260" y="10" width="1070" height="1120" as="geometry" />
        </mxCell>
        <mxCell id="-nP0ZrahyCruFPq4XVpQ-1" value="&lt;b&gt;Raw Items&lt;/b&gt;" style="shape=cylinder3;whiteSpace=wrap;html=1;boundedLbl=1;backgroundOutline=1;size=15;fillColor=#dae8fc;gradientColor=#7ea6e0;strokeColor=#6c8ebf;" vertex="1" parent="1">
          <mxGeometry x="620" y="60" width="100" height="100" as="geometry" />
        </mxCell>
        <mxCell id="-nP0ZrahyCruFPq4XVpQ-2" style="edgeStyle=orthogonalEdgeStyle;rounded=0;orthogonalLoop=1;jettySize=auto;html=1;flowAnimation=1;" edge="1" parent="1" source="-nP0ZrahyCruFPq4XVpQ-3" target="-nP0ZrahyCruFPq4XVpQ-1">
          <mxGeometry relative="1" as="geometry" />
        </mxCell>
        <mxCell id="-nP0ZrahyCruFPq4XVpQ-3" value="&lt;b&gt;Chef&lt;/b&gt;" style="rounded=0;whiteSpace=wrap;html=1;fillColor=#d5e8d4;gradientColor=#97d077;strokeColor=#82b366;" vertex="1" parent="1">
          <mxGeometry x="390" y="70" width="130" height="80" as="geometry" />
        </mxCell>
        <mxCell id="-nP0ZrahyCruFPq4XVpQ-4" style="edgeStyle=orthogonalEdgeStyle;rounded=0;orthogonalLoop=1;jettySize=auto;html=1;entryX=0;entryY=0.5;entryDx=0;entryDy=0;flowAnimation=1;" edge="1" parent="1" source="-nP0ZrahyCruFPq4XVpQ-5" target="-nP0ZrahyCruFPq4XVpQ-3">
          <mxGeometry relative="1" as="geometry" />
        </mxCell>
        <mxCell id="-nP0ZrahyCruFPq4XVpQ-5" value="&lt;b&gt;Waiter&lt;/b&gt;" style="rounded=0;whiteSpace=wrap;html=1;fillColor=#f8cecc;gradientColor=#ea6b66;strokeColor=#b85450;" vertex="1" parent="1">
          <mxGeometry x="200" y="70" width="130" height="80" as="geometry" />
        </mxCell>
        <mxCell id="-nP0ZrahyCruFPq4XVpQ-6" style="edgeStyle=orthogonalEdgeStyle;rounded=0;orthogonalLoop=1;jettySize=auto;html=1;entryX=0;entryY=0.5;entryDx=0;entryDy=0;flowAnimation=1;" edge="1" parent="1" source="-nP0ZrahyCruFPq4XVpQ-7" target="-nP0ZrahyCruFPq4XVpQ-5">
          <mxGeometry relative="1" as="geometry" />
        </mxCell>
        <mxCell id="-nP0ZrahyCruFPq4XVpQ-7" value="&lt;b&gt;Cpatain&lt;/b&gt;" style="rounded=0;whiteSpace=wrap;html=1;fillColor=#e6d0de;gradientColor=#d5739d;strokeColor=#996185;" vertex="1" parent="1">
          <mxGeometry y="70" width="130" height="80" as="geometry" />
        </mxCell>
        <mxCell id="-nP0ZrahyCruFPq4XVpQ-9" style="edgeStyle=orthogonalEdgeStyle;rounded=0;orthogonalLoop=1;jettySize=auto;html=1;entryX=0;entryY=0.5;entryDx=0;entryDy=0;flowAnimation=1;" edge="1" parent="1" target="-nP0ZrahyCruFPq4XVpQ-7">
          <mxGeometry relative="1" as="geometry">
            <mxPoint x="-112" y="110" as="sourcePoint" />
          </mxGeometry>
        </mxCell>
        <mxCell id="-nP0ZrahyCruFPq4XVpQ-10" value="&lt;b&gt;Customer&lt;/b&gt;" style="text;html=1;align=center;verticalAlign=middle;resizable=0;points=[];autosize=1;strokeColor=none;fillColor=none;" vertex="1" parent="1">
          <mxGeometry x="-206" y="160" width="80" height="30" as="geometry" />
        </mxCell>
        <mxCell id="-nP0ZrahyCruFPq4XVpQ-11" value="&lt;b&gt;Database&lt;/b&gt;" style="shape=cylinder3;whiteSpace=wrap;html=1;boundedLbl=1;backgroundOutline=1;size=15;fillColor=#dae8fc;gradientColor=#7ea6e0;strokeColor=#6c8ebf;" vertex="1" parent="1">
          <mxGeometry x="620" y="350" width="100" height="110" as="geometry" />
        </mxCell>
        <mxCell id="-nP0ZrahyCruFPq4XVpQ-12" value="&lt;b&gt;Application&lt;br&gt;Server&lt;/b&gt;" style="rounded=0;whiteSpace=wrap;html=1;fillColor=#d5e8d4;gradientColor=#97d077;strokeColor=#82b366;" vertex="1" parent="1">
          <mxGeometry x="410" y="365" width="130" height="80" as="geometry" />
        </mxCell>
        <mxCell id="-nP0ZrahyCruFPq4XVpQ-13" style="edgeStyle=orthogonalEdgeStyle;rounded=0;orthogonalLoop=1;jettySize=auto;html=1;entryX=0;entryY=0.5;entryDx=0;entryDy=0;entryPerimeter=0;flowAnimation=1;" edge="1" parent="1" source="-nP0ZrahyCruFPq4XVpQ-12" target="-nP0ZrahyCruFPq4XVpQ-11">
          <mxGeometry relative="1" as="geometry" />
        </mxCell>
        <mxCell id="-nP0ZrahyCruFPq4XVpQ-19" style="edgeStyle=orthogonalEdgeStyle;rounded=0;orthogonalLoop=1;jettySize=auto;html=1;entryX=0;entryY=0.5;entryDx=0;entryDy=0;flowAnimation=1;" edge="1" parent="1" source="-nP0ZrahyCruFPq4XVpQ-18" target="-nP0ZrahyCruFPq4XVpQ-12">
          <mxGeometry relative="1" as="geometry" />
        </mxCell>
        <mxCell id="-nP0ZrahyCruFPq4XVpQ-18" value="&lt;b&gt;Web Server&lt;/b&gt;" style="rounded=0;whiteSpace=wrap;html=1;fillColor=#f8cecc;gradientColor=#ea6b66;strokeColor=#b85450;" vertex="1" parent="1">
          <mxGeometry x="190" y="310" width="130" height="80" as="geometry" />
        </mxCell>
        <mxCell id="-nP0ZrahyCruFPq4XVpQ-21" style="edgeStyle=orthogonalEdgeStyle;rounded=0;orthogonalLoop=1;jettySize=auto;html=1;entryX=0;entryY=0.5;entryDx=0;entryDy=0;flowAnimation=1;" edge="1" parent="1" source="-nP0ZrahyCruFPq4XVpQ-20" target="-nP0ZrahyCruFPq4XVpQ-12">
          <mxGeometry relative="1" as="geometry" />
        </mxCell>
        <mxCell id="-nP0ZrahyCruFPq4XVpQ-20" value="&lt;b&gt;Web Server&lt;/b&gt;" style="rounded=0;whiteSpace=wrap;html=1;fillColor=#f8cecc;gradientColor=#ea6b66;strokeColor=#b85450;" vertex="1" parent="1">
          <mxGeometry x="190" y="450" width="130" height="80" as="geometry" />
        </mxCell>
        <mxCell id="-nP0ZrahyCruFPq4XVpQ-23" style="edgeStyle=orthogonalEdgeStyle;rounded=0;orthogonalLoop=1;jettySize=auto;html=1;entryX=0;entryY=0.5;entryDx=0;entryDy=0;flowAnimation=1;" edge="1" parent="1" source="-nP0ZrahyCruFPq4XVpQ-22" target="-nP0ZrahyCruFPq4XVpQ-18">
          <mxGeometry relative="1" as="geometry" />
        </mxCell>
        <mxCell id="-nP0ZrahyCruFPq4XVpQ-24" style="edgeStyle=orthogonalEdgeStyle;rounded=0;orthogonalLoop=1;jettySize=auto;html=1;entryX=0;entryY=0.5;entryDx=0;entryDy=0;flowAnimation=1;" edge="1" parent="1" source="-nP0ZrahyCruFPq4XVpQ-22" target="-nP0ZrahyCruFPq4XVpQ-20">
          <mxGeometry relative="1" as="geometry" />
        </mxCell>
        <mxCell id="-nP0ZrahyCruFPq4XVpQ-22" value="&lt;b&gt;Load Balancer&lt;/b&gt;" style="rounded=0;whiteSpace=wrap;html=1;fillColor=#fff2cc;gradientColor=#ffd966;strokeColor=#d6b656;" vertex="1" parent="1">
          <mxGeometry x="-20" y="380" width="130" height="80" as="geometry" />
        </mxCell>
        <mxCell id="-nP0ZrahyCruFPq4XVpQ-26" style="edgeStyle=orthogonalEdgeStyle;rounded=0;orthogonalLoop=1;jettySize=auto;html=1;entryX=0;entryY=0.5;entryDx=0;entryDy=0;" edge="1" parent="1" target="-nP0ZrahyCruFPq4XVpQ-22">
          <mxGeometry relative="1" as="geometry">
            <mxPoint x="-112" y="420" as="sourcePoint" />
          </mxGeometry>
        </mxCell>
        <mxCell id="-nP0ZrahyCruFPq4XVpQ-27" value="&lt;b&gt;&lt;font style=&quot;font-size: 14px;&quot; face=&quot;Comic Sans MS&quot;&gt;joindevops.com&lt;/font&gt;&lt;/b&gt;" style="text;html=1;align=center;verticalAlign=middle;resizable=0;points=[];autosize=1;strokeColor=none;fillColor=none;" vertex="1" parent="1">
          <mxGeometry x="-126" y="460" width="120" height="30" as="geometry" />
        </mxCell>
        <mxCell id="-nP0ZrahyCruFPq4XVpQ-29" style="edgeStyle=orthogonalEdgeStyle;rounded=0;orthogonalLoop=1;jettySize=auto;html=1;entryX=0;entryY=0.5;entryDx=0;entryDy=0;flowAnimation=1;" edge="1" parent="1" target="-nP0ZrahyCruFPq4XVpQ-12">
          <mxGeometry relative="1" as="geometry">
            <mxPoint x="322.5" y="635" as="sourcePoint" />
          </mxGeometry>
        </mxCell>
        <mxCell id="-nP0ZrahyCruFPq4XVpQ-30" value="&lt;b&gt;&lt;font face=&quot;Comic Sans MS&quot;&gt;Mobile App&lt;/font&gt;&lt;/b&gt;" style="text;html=1;align=center;verticalAlign=middle;resizable=0;points=[];autosize=1;strokeColor=none;fillColor=none;" vertex="1" parent="1">
          <mxGeometry x="290" y="660" width="90" height="30" as="geometry" />
        </mxCell>
        <mxCell id="-nP0ZrahyCruFPq4XVpQ-37" value="" style="group" vertex="1" connectable="0" parent="1">
          <mxGeometry x="-150" y="790" width="270" height="300" as="geometry" />
        </mxCell>
        <mxCell id="-nP0ZrahyCruFPq4XVpQ-31" value="" style="shape=cylinder3;whiteSpace=wrap;html=1;boundedLbl=1;backgroundOutline=1;size=15;fillColor=#f8cecc;gradientColor=#ea6b66;strokeColor=#b85450;" vertex="1" parent="-nP0ZrahyCruFPq4XVpQ-37">
          <mxGeometry width="270" height="300" as="geometry" />
        </mxCell>
        <mxCell id="-nP0ZrahyCruFPq4XVpQ-32" value="&lt;b style=&quot;text-wrap-mode: wrap;&quot;&gt;MySQL&lt;/b&gt;&lt;div style=&quot;text-wrap-mode: wrap;&quot;&gt;&lt;b&gt;Server&lt;/b&gt;&lt;/div&gt;" style="text;html=1;align=center;verticalAlign=middle;resizable=0;points=[];autosize=1;strokeColor=none;fillColor=none;" vertex="1" parent="-nP0ZrahyCruFPq4XVpQ-37">
          <mxGeometry x="105" y="30" width="60" height="40" as="geometry" />
        </mxCell>
        <mxCell id="-nP0ZrahyCruFPq4XVpQ-33" value="&lt;div&gt;&lt;b&gt;Users&lt;/b&gt;&lt;/div&gt;&lt;b&gt;Schema/&lt;/b&gt;&lt;div&gt;&lt;b&gt;Database&lt;/b&gt;&lt;/div&gt;" style="whiteSpace=wrap;html=1;aspect=fixed;fillColor=#dae8fc;gradientColor=#7ea6e0;strokeColor=#6c8ebf;" vertex="1" parent="-nP0ZrahyCruFPq4XVpQ-37">
          <mxGeometry x="10" y="70" width="80" height="80" as="geometry" />
        </mxCell>
        <mxCell id="-nP0ZrahyCruFPq4XVpQ-34" value="&lt;div&gt;&lt;b&gt;videos&lt;/b&gt;&lt;/div&gt;&lt;b&gt;Schema/&lt;/b&gt;&lt;div&gt;&lt;b&gt;Database&lt;/b&gt;&lt;/div&gt;" style="whiteSpace=wrap;html=1;aspect=fixed;fillColor=#d5e8d4;gradientColor=#97d077;strokeColor=#82b366;" vertex="1" parent="-nP0ZrahyCruFPq4XVpQ-37">
          <mxGeometry x="170" y="70" width="80" height="80" as="geometry" />
        </mxCell>
        <mxCell id="-nP0ZrahyCruFPq4XVpQ-35" value="&lt;div&gt;&lt;b&gt;Photos&lt;/b&gt;&lt;/div&gt;&lt;b&gt;Schema/&lt;/b&gt;&lt;div&gt;&lt;b&gt;Database&lt;/b&gt;&lt;/div&gt;" style="whiteSpace=wrap;html=1;aspect=fixed;fillColor=#fff2cc;gradientColor=#ffd966;strokeColor=#d6b656;" vertex="1" parent="-nP0ZrahyCruFPq4XVpQ-37">
          <mxGeometry x="10" y="180" width="80" height="80" as="geometry" />
        </mxCell>
        <mxCell id="-nP0ZrahyCruFPq4XVpQ-36" value="&lt;div&gt;&lt;b&gt;Live&lt;/b&gt;&lt;/div&gt;&lt;b&gt;Schema/&lt;/b&gt;&lt;div&gt;&lt;b&gt;Database&lt;/b&gt;&lt;/div&gt;" style="whiteSpace=wrap;html=1;aspect=fixed;fillColor=#ffcd28;gradientColor=#ffa500;strokeColor=#d79b00;" vertex="1" parent="-nP0ZrahyCruFPq4XVpQ-37">
          <mxGeometry x="170" y="180" width="80" height="80" as="geometry" />
        </mxCell>
        <mxCell id="-nP0ZrahyCruFPq4XVpQ-38" value="" style="rounded=0;whiteSpace=wrap;html=1;fillColor=#dae8fc;gradientColor=#7ea6e0;strokeColor=#6c8ebf;" vertex="1" parent="1">
          <mxGeometry x="410" y="790" width="230" height="300" as="geometry" />
        </mxCell>
        <mxCell id="-nP0ZrahyCruFPq4XVpQ-39" value="&lt;b&gt;Linux Server&lt;/b&gt;" style="text;html=1;align=center;verticalAlign=middle;resizable=0;points=[];autosize=1;strokeColor=none;fillColor=none;" vertex="1" parent="1">
          <mxGeometry x="475" y="790" width="100" height="30" as="geometry" />
        </mxCell>
        <mxCell id="-nP0ZrahyCruFPq4XVpQ-40" value="&lt;b&gt;MySQL&lt;/b&gt;&lt;div&gt;&lt;b&gt;Server&lt;/b&gt;&lt;/div&gt;" style="shape=cylinder3;whiteSpace=wrap;html=1;boundedLbl=1;backgroundOutline=1;size=15;fillColor=#f8cecc;gradientColor=#ea6b66;strokeColor=#b85450;" vertex="1" parent="1">
          <mxGeometry x="545" y="880" width="90" height="120" as="geometry" />
        </mxCell>
        <mxCell id="-nP0ZrahyCruFPq4XVpQ-41" style="edgeStyle=orthogonalEdgeStyle;rounded=0;orthogonalLoop=1;jettySize=auto;html=1;" edge="1" parent="1" source="-nP0ZrahyCruFPq4XVpQ-42" target="-nP0ZrahyCruFPq4XVpQ-40">
          <mxGeometry relative="1" as="geometry" />
        </mxCell>
        <mxCell id="-nP0ZrahyCruFPq4XVpQ-42" value="&lt;b&gt;MySQL&amp;nbsp;&lt;br&gt;&lt;/b&gt;&lt;b style=&quot;background-color: initial;&quot;&gt;Client&lt;/b&gt;" style="ellipse;whiteSpace=wrap;html=1;fillColor=#d5e8d4;gradientColor=#97d077;strokeColor=#82b366;" vertex="1" parent="1">
          <mxGeometry x="415" y="910" width="80" height="60" as="geometry" />
        </mxCell>
        <mxCell id="-nP0ZrahyCruFPq4XVpQ-43" value="" style="sketch=0;pointerEvents=1;shadow=0;dashed=0;html=1;strokeColor=none;fillColor=#505050;labelPosition=center;verticalLabelPosition=bottom;verticalAlign=top;outlineConnect=0;align=center;shape=mxgraph.office.devices.cell_phone_iphone_proportional;" vertex="1" parent="1">
          <mxGeometry x="215" y="570" width="80" height="120" as="geometry" />
        </mxCell>
        <mxCell id="-nP0ZrahyCruFPq4XVpQ-45" value="" style="verticalLabelPosition=bottom;shadow=0;dashed=0;align=center;html=1;verticalAlign=top;strokeWidth=1;shape=mxgraph.mockup.containers.userMale;strokeColor=#666666;strokeColor2=#008cff;" vertex="1" parent="1">
          <mxGeometry x="-216" y="50" width="100" height="100" as="geometry" />
        </mxCell>
        <mxCell id="-nP0ZrahyCruFPq4XVpQ-46" value="" style="verticalLabelPosition=bottom;shadow=0;dashed=0;align=center;html=1;verticalAlign=top;strokeWidth=1;shape=mxgraph.mockup.containers.userFemale;strokeColor=#666666;strokeColor2=#008cff;" vertex="1" parent="1">
          <mxGeometry x="-216" y="365" width="100" height="100" as="geometry" />
        </mxCell>
      </root>
    </mxGraphModel>
  </diagram>
</mxfile>
